<svg xmlns="http://www.w3.org/2000/svg" xmlns:xlink="http://www.w3.org/1999/xlink" width="320" zoomAndPan="magnify" viewBox="0 0 240 74.999997" height="100" preserveAspectRatio="xMidYMid meet" version="1.0"><defs><g/><clipPath id="4202f94c68"><path d="M 2 21 L 29 21 L 29 50 L 2 50 Z M 2 21 " clip-rule="nonzero"/></clipPath><clipPath id="51e13ce9e5"><path d="M 0.34375 25.949219 L 23.558594 19.859375 L 30.410156 45.976562 L 7.195312 52.066406 Z M 0.34375 25.949219 " clip-rule="nonzero"/></clipPath><clipPath id="6b43895cb2"><path d="M 0.34375 25.949219 L 23.558594 19.859375 L 30.410156 45.976562 L 7.195312 52.066406 Z M 0.34375 25.949219 " clip-rule="nonzero"/></clipPath><clipPath id="6b39f8c6ab"><path d="M 23 21 L 49 21 L 49 51 L 23 51 Z M 23 21 " clip-rule="nonzero"/></clipPath><clipPath id="4672b1c9cc"><path d="M 28.082031 19.90625 L 51.273438 26.074219 L 44.335938 52.167969 L 21.144531 46 Z M 28.082031 19.90625 " clip-rule="nonzero"/></clipPath><clipPath id="83efd46a64"><path d="M 50.992188 26 L 27.796875 19.832031 L 20.859375 45.925781 L 44.054688 52.09375 Z M 50.992188 26 " clip-rule="nonzero"/></clipPath></defs><g clip-path="url(#4202f94c68)"><g clip-path="url(#51e13ce9e5)"><g clip-path="url(#6b43895cb2)"><path fill="#ff5000" d="M 27.839844 37.371094 C 26.234375 31.242188 20.089844 31.613281 16.011719 31.847656 C 14.703125 31.925781 12.503906 32.054688 12.390625 31.617188 C 12.242188 31.054688 13.394531 30.550781 14.542969 30.25 C 16.496094 29.734375 18.746094 29.75 21.226562 30.277344 L 22.011719 30.441406 L 23.089844 22.617188 L 22.4375 22.445312 C 19.660156 21.71875 16.078125 21.820312 12.628906 22.726562 C 9.019531 23.671875 6.246094 25.316406 4.601562 27.496094 C 3.050781 29.546875 2.550781 32.015625 3.195312 34.480469 C 4.8125 40.640625 10.925781 40.320312 14.976562 40.109375 C 16.414062 40.042969 18.566406 39.929688 18.695312 40.421875 C 18.785156 40.753906 17.925781 41.210938 16.492188 41.585938 C 14.058594 42.226562 11.011719 42.1875 8.53125 41.476562 L 7.726562 41.238281 L 6.453125 49.195312 L 7.074219 49.386719 C 10.035156 50.28125 14.363281 50.183594 18.394531 49.128906 C 21.988281 48.183594 24.773438 46.523438 26.414062 44.328125 C 27.96875 42.28125 28.480469 39.804688 27.839844 37.371094 Z M 27.839844 37.371094 " fill-opacity="1" fill-rule="nonzero"/></g></g></g><g clip-path="url(#6b39f8c6ab)"><g clip-path="url(#4672b1c9cc)"><g clip-path="url(#83efd46a64)"><path fill="#ff5000" d="M 23.457031 37.328125 C 25.085938 31.203125 31.230469 31.597656 35.304688 31.84375 C 36.613281 31.929688 38.8125 32.0625 38.925781 31.628906 C 39.078125 31.0625 37.925781 30.554688 36.78125 30.25 C 34.828125 29.730469 32.578125 29.738281 30.097656 30.257812 L 29.308594 30.421875 L 28.261719 22.589844 L 28.910156 22.421875 C 31.691406 21.703125 35.269531 21.820312 38.71875 22.734375 C 42.324219 23.695312 45.09375 25.34375 46.730469 27.53125 C 48.277344 29.585938 48.765625 32.058594 48.113281 34.519531 C 46.476562 40.675781 40.363281 40.335938 36.316406 40.113281 C 34.875 40.039062 32.722656 39.917969 32.59375 40.410156 C 32.503906 40.742188 33.359375 41.203125 34.792969 41.582031 C 37.222656 42.230469 40.269531 42.203125 42.753906 41.5 L 43.558594 41.261719 L 44.808594 49.222656 L 44.183594 49.414062 C 41.21875 50.300781 36.890625 50.1875 32.867188 49.117188 C 29.273438 48.164062 26.492188 46.492188 24.863281 44.292969 C 23.316406 42.238281 22.8125 39.761719 23.457031 37.328125 Z M 23.457031 37.328125 " fill-opacity="1" fill-rule="nonzero"/></g></g></g><g fill="#000000" fill-opacity="1"><g transform="translate(49.534001, 47.332836)"><g><path d="M 11.28125 -21.75 C 14.019531 -21.75 16.269531 -21.191406 18.03125 -20.078125 C 19.789062 -18.972656 20.691406 -17.335938 20.734375 -15.171875 L 20.734375 -14.796875 L 14.296875 -14.796875 L 14.296875 -14.921875 C 14.296875 -15.535156 14.066406 -16.050781 13.609375 -16.46875 C 13.148438 -16.882812 12.457031 -17.09375 11.53125 -17.09375 C 10.613281 -17.09375 9.910156 -16.957031 9.421875 -16.6875 C 8.941406 -16.414062 8.703125 -16.082031 8.703125 -15.6875 C 8.703125 -15.132812 9.03125 -14.722656 9.6875 -14.453125 C 10.351562 -14.179688 11.421875 -13.898438 12.890625 -13.609375 C 14.617188 -13.253906 16.035156 -12.882812 17.140625 -12.5 C 18.242188 -12.125 19.207031 -11.5 20.03125 -10.625 C 20.863281 -9.757812 21.289062 -8.578125 21.3125 -7.078125 C 21.3125 -4.554688 20.457031 -2.679688 18.75 -1.453125 C 17.039062 -0.234375 14.757812 0.375 11.90625 0.375 C 8.570312 0.375 5.976562 -0.179688 4.125 -1.296875 C 2.269531 -2.421875 1.34375 -4.398438 1.34375 -7.234375 L 7.828125 -7.234375 C 7.828125 -6.160156 8.109375 -5.441406 8.671875 -5.078125 C 9.234375 -4.710938 10.101562 -4.53125 11.28125 -4.53125 C 12.15625 -4.53125 12.875 -4.625 13.4375 -4.8125 C 14.007812 -5 14.296875 -5.382812 14.296875 -5.96875 C 14.296875 -6.488281 13.976562 -6.875 13.34375 -7.125 C 12.71875 -7.382812 11.6875 -7.660156 10.25 -7.953125 C 8.507812 -8.328125 7.070312 -8.71875 5.9375 -9.125 C 4.800781 -9.53125 3.804688 -10.195312 2.953125 -11.125 C 2.097656 -12.0625 1.671875 -13.328125 1.671875 -14.921875 C 1.671875 -17.253906 2.578125 -18.972656 4.390625 -20.078125 C 6.203125 -21.191406 8.5 -21.75 11.28125 -21.75 Z M 11.28125 -21.75 "/></g></g></g><g fill="#000000" fill-opacity="1"><g transform="translate(71.965818, 47.332836)"><g><path d="M 2.078125 -18.34375 L 2.078125 -22.53125 L 8.265625 -22.53125 L 8.265625 -18.34375 Z M 2.078125 0 L 2.078125 -16.40625 L 8.265625 -16.40625 L 8.265625 0 Z M 2.078125 0 "/></g></g></g><g fill="#000000" fill-opacity="1"><g transform="translate(82.311799, 47.332836)"><g><path d="M 12.796875 -16.40625 L 12.796875 -12.21875 L 9.328125 -12.21875 L 9.328125 -5.96875 C 9.328125 -5.21875 9.445312 -4.671875 9.6875 -4.328125 C 9.9375 -3.992188 10.394531 -3.828125 11.0625 -3.828125 L 12.796875 -3.828125 L 12.796875 -0.1875 C 12.304688 -0.0195312 11.664062 0.113281 10.875 0.21875 C 10.09375 0.320312 9.410156 0.375 8.828125 0.375 C 7.003906 0.375 5.597656 0.046875 4.609375 -0.609375 C 3.628906 -1.273438 3.140625 -2.410156 3.140625 -4.015625 L 3.140625 -12.21875 L 0.84375 -12.21875 L 0.84375 -16.40625 L 3.390625 -16.40625 L 4.71875 -21.375 L 9.328125 -21.375 L 9.328125 -16.40625 Z M 12.796875 -16.40625 "/></g></g></g><g fill="#000000" fill-opacity="1"><g transform="translate(96.106437, 47.332836)"><g><path d="M 10.34375 -16.78125 C 13.351562 -16.78125 15.648438 -16.078125 17.234375 -14.671875 C 18.816406 -13.265625 19.609375 -11.109375 19.609375 -8.203125 L 19.609375 -7.140625 L 7.296875 -7.140625 C 7.296875 -5.960938 7.5625 -5.070312 8.09375 -4.46875 C 8.625 -3.875 9.457031 -3.578125 10.59375 -3.578125 C 11.632812 -3.578125 12.394531 -3.789062 12.875 -4.21875 C 13.363281 -4.65625 13.609375 -5.238281 13.609375 -5.96875 L 19.609375 -5.96875 C 19.609375 -3.976562 18.851562 -2.421875 17.34375 -1.296875 C 15.832031 -0.179688 13.625 0.375 10.71875 0.375 C 7.675781 0.375 5.316406 -0.332031 3.640625 -1.75 C 1.960938 -3.175781 1.125 -5.328125 1.125 -8.203125 C 1.125 -11.023438 1.941406 -13.160156 3.578125 -14.609375 C 5.210938 -16.054688 7.46875 -16.78125 10.34375 -16.78125 Z M 10.59375 -12.828125 C 8.644531 -12.828125 7.554688 -11.90625 7.328125 -10.0625 L 13.359375 -10.0625 C 13.359375 -10.914062 13.113281 -11.585938 12.625 -12.078125 C 12.144531 -12.578125 11.46875 -12.828125 10.59375 -12.828125 Z M 10.59375 -12.828125 "/></g></g></g><g fill="#ff5c00" fill-opacity="1"><g transform="translate(116.838898, 47.332836)"><g><path d="M 12.953125 -21.75 C 15.066406 -21.75 16.898438 -21.488281 18.453125 -20.96875 C 20.015625 -20.457031 21.207031 -19.753906 22.03125 -18.859375 C 22.863281 -17.972656 23.28125 -16.988281 23.28125 -15.90625 L 23.28125 -15.140625 L 17.78125 -15.140625 C 17.78125 -15.773438 17.398438 -16.304688 16.640625 -16.734375 C 15.890625 -17.160156 14.796875 -17.375 13.359375 -17.375 C 12.035156 -17.375 11.023438 -17.117188 10.328125 -16.609375 C 9.640625 -16.097656 9.296875 -15.484375 9.296875 -14.765625 C 9.296875 -14.117188 9.503906 -13.628906 9.921875 -13.296875 C 10.347656 -12.960938 10.875 -12.796875 11.5 -12.796875 L 14.734375 -12.796875 L 14.734375 -8.984375 L 10.8125 -8.984375 C 10.175781 -8.984375 9.65625 -8.789062 9.25 -8.40625 C 8.84375 -8.019531 8.640625 -7.46875 8.640625 -6.75 C 8.640625 -5.894531 8.992188 -5.222656 9.703125 -4.734375 C 10.421875 -4.253906 11.554688 -4.015625 13.109375 -4.015625 C 16.222656 -4.015625 17.78125 -4.9375 17.78125 -6.78125 L 17.78125 -12.796875 L 27.59375 -12.796875 L 27.59375 -8.984375 L 23.34375 -8.984375 L 23.34375 -6.90625 C 23.34375 -4.582031 22.515625 -2.785156 20.859375 -1.515625 C 19.210938 -0.253906 16.640625 0.375 13.140625 0.375 C 9.535156 0.375 6.832031 -0.203125 5.03125 -1.359375 C 3.226562 -2.523438 2.328125 -4.0625 2.328125 -5.96875 C 2.328125 -7.207031 2.648438 -8.273438 3.296875 -9.171875 C 3.953125 -10.078125 4.875 -10.71875 6.0625 -11.09375 L 6.0625 -11.21875 C 5.164062 -11.550781 4.421875 -12.117188 3.828125 -12.921875 C 3.242188 -13.734375 2.953125 -14.632812 2.953125 -15.625 C 2.953125 -16.75 3.328125 -17.773438 4.078125 -18.703125 C 4.835938 -19.640625 5.972656 -20.378906 7.484375 -20.921875 C 9.003906 -21.472656 10.828125 -21.75 12.953125 -21.75 Z M 12.953125 -21.75 "/></g></g></g><g fill="#000000" fill-opacity="1"><g transform="translate(144.459626, 47.332836)"><g><path d="M 11.28125 -21.75 C 14.019531 -21.75 16.269531 -21.191406 18.03125 -20.078125 C 19.789062 -18.972656 20.691406 -17.335938 20.734375 -15.171875 L 20.734375 -14.796875 L 14.296875 -14.796875 L 14.296875 -14.921875 C 14.296875 -15.535156 14.066406 -16.050781 13.609375 -16.46875 C 13.148438 -16.882812 12.457031 -17.09375 11.53125 -17.09375 C 10.613281 -17.09375 9.910156 -16.957031 9.421875 -16.6875 C 8.941406 -16.414062 8.703125 -16.082031 8.703125 -15.6875 C 8.703125 -15.132812 9.03125 -14.722656 9.6875 -14.453125 C 10.351562 -14.179688 11.421875 -13.898438 12.890625 -13.609375 C 14.617188 -13.253906 16.035156 -12.882812 17.140625 -12.5 C 18.242188 -12.125 19.207031 -11.5 20.03125 -10.625 C 20.863281 -9.757812 21.289062 -8.578125 21.3125 -7.078125 C 21.3125 -4.554688 20.457031 -2.679688 18.75 -1.453125 C 17.039062 -0.234375 14.757812 0.375 11.90625 0.375 C 8.570312 0.375 5.976562 -0.179688 4.125 -1.296875 C 2.269531 -2.421875 1.34375 -4.398438 1.34375 -7.234375 L 7.828125 -7.234375 C 7.828125 -6.160156 8.109375 -5.441406 8.671875 -5.078125 C 9.234375 -4.710938 10.101562 -4.53125 11.28125 -4.53125 C 12.15625 -4.53125 12.875 -4.625 13.4375 -4.8125 C 14.007812 -5 14.296875 -5.382812 14.296875 -5.96875 C 14.296875 -6.488281 13.976562 -6.875 13.34375 -7.125 C 12.71875 -7.382812 11.6875 -7.660156 10.25 -7.953125 C 8.507812 -8.328125 7.070312 -8.71875 5.9375 -9.125 C 4.800781 -9.53125 3.804688 -10.195312 2.953125 -11.125 C 2.097656 -12.0625 1.671875 -13.328125 1.671875 -14.921875 C 1.671875 -17.253906 2.578125 -18.972656 4.390625 -20.078125 C 6.203125 -21.191406 8.5 -21.75 11.28125 -21.75 Z M 11.28125 -21.75 "/></g></g></g><g fill="#000000" fill-opacity="1"><g transform="translate(166.891443, 47.332836)"><g><path d="M 2.078125 -18.34375 L 2.078125 -22.53125 L 8.265625 -22.53125 L 8.265625 -18.34375 Z M 2.078125 0 L 2.078125 -16.40625 L 8.265625 -16.40625 L 8.265625 0 Z M 2.078125 0 "/></g></g></g><g fill="#000000" fill-opacity="1"><g transform="translate(177.237424, 47.332836)"><g><path d="M 20.328125 -19.484375 C 20.328125 -18.222656 20.007812 -17.25 19.375 -16.5625 C 18.738281 -15.875 17.789062 -15.367188 16.53125 -15.046875 C 17.132812 -14.585938 17.601562 -14.050781 17.9375 -13.4375 C 18.28125 -12.832031 18.453125 -12.1875 18.453125 -11.5 C 18.453125 -9.757812 17.796875 -8.441406 16.484375 -7.546875 C 15.171875 -6.660156 13.53125 -6.21875 11.5625 -6.21875 L 9.203125 -6.21875 C 7.890625 -6.21875 7.234375 -5.914062 7.234375 -5.3125 C 7.234375 -5.019531 7.378906 -4.785156 7.671875 -4.609375 C 7.960938 -4.429688 8.472656 -4.34375 9.203125 -4.34375 L 14.796875 -4.34375 C 16.617188 -4.34375 17.992188 -3.863281 18.921875 -2.90625 C 19.859375 -1.957031 20.328125 -0.6875 20.328125 0.90625 C 20.328125 2.082031 20.015625 3.09375 19.390625 3.9375 C 18.765625 4.789062 17.925781 5.4375 16.875 5.875 C 15.820312 6.3125 14.671875 6.53125 13.421875 6.53125 L 4.28125 6.53125 C 3.539062 6.53125 2.851562 6.351562 2.21875 6 C 1.59375 5.644531 1.09375 5.160156 0.71875 4.546875 C 0.34375 3.941406 0.15625 3.265625 0.15625 2.515625 C 0.15625 1.710938 0.398438 0.984375 0.890625 0.328125 C 1.390625 -0.328125 2.015625 -0.820312 2.765625 -1.15625 C 2.265625 -1.5 1.867188 -1.921875 1.578125 -2.421875 C 1.296875 -2.921875 1.15625 -3.460938 1.15625 -4.046875 C 1.15625 -4.847656 1.453125 -5.570312 2.046875 -6.21875 C 2.648438 -6.875 3.394531 -7.316406 4.28125 -7.546875 C 3.476562 -8.066406 2.835938 -8.660156 2.359375 -9.328125 C 1.878906 -10.003906 1.640625 -10.71875 1.640625 -11.46875 C 1.640625 -13.375 2.410156 -14.734375 3.953125 -15.546875 C 5.503906 -16.367188 7.550781 -16.78125 10.09375 -16.78125 C 11.21875 -16.78125 12.117188 -16.71875 12.796875 -16.59375 C 13.816406 -17.238281 14.476562 -17.820312 14.78125 -18.34375 C 15.082031 -18.875 15.234375 -19.253906 15.234375 -19.484375 Z M 10.03125 -13.546875 C 9.351562 -13.546875 8.796875 -13.367188 8.359375 -13.015625 C 7.921875 -12.671875 7.703125 -12.164062 7.703125 -11.5 C 7.703125 -10.8125 7.90625 -10.296875 8.3125 -9.953125 C 8.71875 -9.617188 9.289062 -9.453125 10.03125 -9.453125 C 10.78125 -9.453125 11.367188 -9.617188 11.796875 -9.953125 C 12.222656 -10.296875 12.4375 -10.8125 12.4375 -11.5 C 12.4375 -12.1875 12.222656 -12.695312 11.796875 -13.03125 C 11.367188 -13.375 10.78125 -13.546875 10.03125 -13.546875 Z M 7.640625 0 C 7.171875 0 6.785156 0.128906 6.484375 0.390625 C 6.179688 0.648438 6.03125 1.015625 6.03125 1.484375 C 6.03125 1.960938 6.1875 2.347656 6.5 2.640625 C 6.8125 2.929688 7.191406 3.078125 7.640625 3.078125 L 12.5 3.078125 C 12.945312 3.078125 13.332031 2.9375 13.65625 2.65625 C 13.976562 2.375 14.140625 1.992188 14.140625 1.515625 C 14.140625 1.046875 13.984375 0.675781 13.671875 0.40625 C 13.359375 0.132812 12.96875 0 12.5 0 Z M 7.640625 0 "/></g></g></g><g fill="#000000" fill-opacity="1"><g transform="translate(197.960449, 47.332836)"><g><path d="M 8.046875 -14.703125 C 8.710938 -15.359375 9.488281 -15.867188 10.375 -16.234375 C 11.269531 -16.597656 12.203125 -16.78125 13.171875 -16.78125 C 15.078125 -16.78125 16.503906 -16.25 17.453125 -15.1875 C 18.410156 -14.132812 18.890625 -12.613281 18.890625 -10.625 L 18.890625 0 L 12.71875 0 L 12.71875 -9.890625 C 12.71875 -10.585938 12.535156 -11.148438 12.171875 -11.578125 C 11.804688 -12.003906 11.289062 -12.21875 10.625 -12.21875 C 9.863281 -12.21875 9.242188 -11.96875 8.765625 -11.46875 C 8.285156 -10.96875 8.046875 -10.359375 8.046875 -9.640625 L 8.046875 0 L 1.859375 0 L 1.859375 -22.53125 L 8.046875 -22.53125 Z M 8.046875 -14.703125 "/></g></g></g><g fill="#000000" fill-opacity="1"><g transform="translate(218.683474, 47.332836)"><g><path d="M 12.796875 -16.40625 L 12.796875 -12.21875 L 9.328125 -12.21875 L 9.328125 -5.96875 C 9.328125 -5.21875 9.445312 -4.671875 9.6875 -4.328125 C 9.9375 -3.992188 10.394531 -3.828125 11.0625 -3.828125 L 12.796875 -3.828125 L 12.796875 -0.1875 C 12.304688 -0.0195312 11.664062 0.113281 10.875 0.21875 C 10.09375 0.320312 9.410156 0.375 8.828125 0.375 C 7.003906 0.375 5.597656 0.046875 4.609375 -0.609375 C 3.628906 -1.273438 3.140625 -2.410156 3.140625 -4.015625 L 3.140625 -12.21875 L 0.84375 -12.21875 L 0.84375 -16.40625 L 3.390625 -16.40625 L 4.71875 -21.375 L 9.328125 -21.375 L 9.328125 -16.40625 Z M 12.796875 -16.40625 "/></g></g></g></svg>