<svg xmlns="http://www.w3.org/2000/svg" xmlns:xlink="http://www.w3.org/1999/xlink" width="320" zoomAndPan="magnify" viewBox="0 0 240 74.999997" height="100" preserveAspectRatio="xMidYMid meet" version="1.0"><defs><g/><clipPath id="ecdfb99a70"><path d="M 8 22 L 34 22 L 34 51 L 8 51 Z M 8 22 " clip-rule="nonzero"/></clipPath><clipPath id="a9393e8cc5"><path d="M 5.449219 26.394531 L 28.664062 20.304688 L 35.515625 46.421875 L 12.300781 52.511719 Z M 5.449219 26.394531 " clip-rule="nonzero"/></clipPath><clipPath id="7e885071e3"><path d="M 5.449219 26.394531 L 28.664062 20.304688 L 35.515625 46.421875 L 12.300781 52.511719 Z M 5.449219 26.394531 " clip-rule="nonzero"/></clipPath><clipPath id="a592e26348"><path d="M 28 22 L 54 22 L 54 51 L 28 51 Z M 28 22 " clip-rule="nonzero"/></clipPath><clipPath id="ee4c642d33"><path d="M 33.183594 20.355469 L 56.378906 26.519531 L 49.441406 52.613281 L 26.246094 46.449219 Z M 33.183594 20.355469 " clip-rule="nonzero"/></clipPath><clipPath id="86c0dc7726"><path d="M 56.097656 26.445312 L 32.902344 20.277344 L 25.964844 46.371094 L 49.160156 52.539062 Z M 56.097656 26.445312 " clip-rule="nonzero"/></clipPath></defs><g clip-path="url(#ecdfb99a70)"><g clip-path="url(#a9393e8cc5)"><g clip-path="url(#7e885071e3)"><path fill="#ff5000" d="M 32.945312 37.816406 C 31.339844 31.6875 25.191406 32.058594 21.117188 32.292969 C 19.808594 32.375 17.609375 32.5 17.496094 32.066406 C 17.347656 31.5 18.5 30.996094 19.644531 30.695312 C 21.601562 30.183594 23.851562 30.195312 26.328125 30.722656 L 27.117188 30.890625 L 28.191406 23.0625 L 27.542969 22.894531 C 24.765625 22.164062 21.183594 22.269531 17.734375 23.171875 C 14.125 24.121094 11.351562 25.761719 9.707031 27.941406 C 8.152344 29.992188 7.65625 32.460938 8.300781 34.925781 C 9.917969 41.085938 16.03125 40.769531 20.078125 40.558594 C 21.519531 40.492188 23.671875 40.375 23.800781 40.867188 C 23.886719 41.199219 23.03125 41.65625 21.597656 42.035156 C 19.164062 42.671875 16.117188 42.636719 13.636719 41.921875 L 12.832031 41.683594 L 11.558594 49.640625 L 12.179688 49.832031 C 15.140625 50.730469 19.46875 50.632812 23.5 49.574219 C 27.09375 48.632812 29.878906 46.972656 31.519531 44.777344 C 33.070312 42.726562 33.585938 40.253906 32.945312 37.816406 Z M 32.945312 37.816406 " fill-opacity="1" fill-rule="nonzero"/></g></g></g><g clip-path="url(#a592e26348)"><g clip-path="url(#ee4c642d33)"><g clip-path="url(#86c0dc7726)"><path fill="#ff5000" d="M 28.5625 37.777344 C 30.191406 31.652344 36.335938 32.042969 40.410156 32.289062 C 41.71875 32.375 43.917969 32.507812 44.03125 32.074219 C 44.183594 31.511719 43.03125 31.003906 41.886719 30.699219 C 39.929688 30.179688 37.679688 30.183594 35.203125 30.703125 L 34.414062 30.867188 L 33.363281 23.039062 L 34.015625 22.867188 C 36.792969 22.152344 40.375 22.265625 43.824219 23.183594 C 47.429688 24.140625 50.199219 25.792969 51.835938 27.980469 C 53.378906 30.035156 53.871094 32.503906 53.214844 34.964844 C 51.582031 41.121094 45.46875 40.78125 41.417969 40.558594 C 39.980469 40.488281 37.828125 40.363281 37.695312 40.855469 C 37.609375 41.1875 38.464844 41.648438 39.898438 42.03125 C 42.328125 42.675781 45.375 42.648438 47.855469 41.945312 L 48.664062 41.710938 L 49.910156 49.667969 L 49.289062 49.859375 C 46.324219 50.746094 41.996094 50.632812 37.972656 49.5625 C 34.378906 48.609375 31.597656 46.941406 29.96875 44.738281 C 28.421875 42.683594 27.914062 40.207031 28.5625 37.777344 Z M 28.5625 37.777344 " fill-opacity="1" fill-rule="nonzero"/></g></g></g><g fill="#000000" fill-opacity="1"><g transform="translate(65.396483, 46.946679)"><g><path d="M 10.164062 -19.597656 C 12.625 -19.597656 14.652344 -19.097656 16.238281 -18.101562 C 17.824219 -17.101562 18.636719 -15.621094 18.675781 -13.664062 L 18.675781 -13.328125 L 12.878906 -13.328125 L 12.878906 -13.4375 C 12.878906 -14 12.671875 -14.464844 12.261719 -14.839844 C 11.851562 -15.210938 11.226562 -15.398438 10.386719 -15.398438 C 9.566406 -15.398438 8.9375 -15.277344 8.496094 -15.035156 C 8.058594 -14.792969 7.839844 -14.492188 7.839844 -14.140625 C 7.839844 -13.636719 8.136719 -13.261719 8.734375 -13.019531 C 9.332031 -12.777344 10.292969 -12.523438 11.617188 -12.261719 C 13.167969 -11.945312 14.441406 -11.613281 15.441406 -11.269531 C 16.4375 -10.921875 17.3125 -10.359375 18.058594 -9.574219 C 18.804688 -8.792969 19.1875 -7.726562 19.207031 -6.382812 C 19.207031 -4.105469 18.4375 -2.417969 16.898438 -1.316406 C 15.355469 -0.214844 13.296875 0.335938 10.722656 0.335938 C 7.71875 0.335938 5.378906 -0.167969 3.710938 -1.175781 C 2.039062 -2.183594 1.203125 -3.964844 1.203125 -6.523438 L 7.054688 -6.523438 C 7.054688 -5.554688 7.308594 -4.902344 7.8125 -4.578125 C 8.316406 -4.25 9.097656 -4.085938 10.164062 -4.085938 C 10.945312 -4.085938 11.59375 -4.171875 12.109375 -4.339844 C 12.621094 -4.507812 12.878906 -4.851562 12.878906 -5.375 C 12.878906 -5.84375 12.59375 -6.191406 12.023438 -6.425781 C 11.457031 -6.660156 10.527344 -6.90625 9.238281 -7.167969 C 7.671875 -7.503906 6.375 -7.851562 5.347656 -8.21875 C 4.320312 -8.582031 3.425781 -9.183594 2.660156 -10.023438 C 1.894531 -10.863281 1.511719 -12 1.511719 -13.4375 C 1.511719 -15.546875 2.328125 -17.101562 3.960938 -18.101562 C 5.59375 -19.097656 7.660156 -19.597656 10.164062 -19.597656 Z M 10.164062 -19.597656 "/></g></g></g><g fill="#000000" fill-opacity="1"><g transform="translate(85.609724, 46.946679)"><g><path d="M 1.875 -16.519531 L 1.875 -20.296875 L 7.449219 -20.296875 L 7.449219 -16.519531 Z M 1.875 0 L 1.875 -14.78125 L 7.449219 -14.78125 L 7.449219 0 Z M 1.875 0 "/></g></g></g><g fill="#000000" fill-opacity="1"><g transform="translate(94.932446, 46.946679)"><g><path d="M 11.535156 -14.78125 L 11.535156 -11.003906 L 8.398438 -11.003906 L 8.398438 -5.375 C 8.398438 -4.703125 8.511719 -4.214844 8.734375 -3.90625 C 8.960938 -3.597656 9.371094 -3.445312 9.96875 -3.445312 L 11.535156 -3.445312 L 11.535156 -0.167969 C 11.085938 -0.0195312 10.507812 0.101562 9.800781 0.195312 C 9.089844 0.289062 8.472656 0.335938 7.953125 0.335938 C 6.308594 0.335938 5.042969 0.0390625 4.15625 -0.558594 C 3.269531 -1.15625 2.828125 -2.175781 2.828125 -3.613281 L 2.828125 -11.003906 L 0.757812 -11.003906 L 0.757812 -14.78125 L 3.050781 -14.78125 L 4.253906 -19.261719 L 8.398438 -19.261719 L 8.398438 -14.78125 Z M 11.535156 -14.78125 "/></g></g></g><g fill="#000000" fill-opacity="1"><g transform="translate(107.362754, 46.946679)"><g><path d="M 9.324219 -15.117188 C 12.03125 -15.117188 14.097656 -14.484375 15.523438 -13.214844 C 16.953125 -11.945312 17.667969 -10.003906 17.667969 -7.390625 L 17.667969 -6.4375 L 6.578125 -6.4375 C 6.578125 -5.375 6.816406 -4.574219 7.292969 -4.03125 C 7.769531 -3.492188 8.519531 -3.21875 9.546875 -3.21875 C 10.480469 -3.21875 11.167969 -3.414062 11.605469 -3.808594 C 12.042969 -4.199219 12.261719 -4.722656 12.261719 -5.375 L 17.667969 -5.375 C 17.667969 -3.582031 16.984375 -2.183594 15.621094 -1.175781 C 14.261719 -0.167969 12.273438 0.335938 9.660156 0.335938 C 6.914062 0.335938 4.789062 -0.304688 3.277344 -1.582031 C 1.765625 -2.859375 1.007812 -4.796875 1.007812 -7.390625 C 1.007812 -9.929688 1.746094 -11.851562 3.21875 -13.160156 C 4.695312 -14.464844 6.730469 -15.117188 9.324219 -15.117188 Z M 9.546875 -11.5625 C 7.792969 -11.5625 6.8125 -10.730469 6.605469 -9.070312 L 12.039062 -9.070312 C 12.039062 -9.835938 11.820312 -10.441406 11.382812 -10.890625 C 10.941406 -11.339844 10.332031 -11.5625 9.546875 -11.5625 Z M 9.546875 -11.5625 "/></g></g></g><g fill="#ff5c00" fill-opacity="1"><g transform="translate(126.04101, 46.946679)"><g><path d="M 11.675781 -19.597656 C 13.578125 -19.597656 15.230469 -19.363281 16.628906 -18.898438 C 18.03125 -18.433594 19.105469 -17.796875 19.851562 -16.996094 C 20.597656 -16.191406 20.96875 -15.304688 20.96875 -14.335938 L 20.96875 -13.636719 L 16.015625 -13.636719 C 16.015625 -14.214844 15.675781 -14.695312 14.992188 -15.078125 C 14.3125 -15.460938 13.328125 -15.652344 12.039062 -15.652344 C 10.84375 -15.652344 9.933594 -15.421875 9.308594 -14.964844 C 8.683594 -14.507812 8.371094 -13.953125 8.371094 -13.296875 C 8.371094 -12.71875 8.5625 -12.28125 8.945312 -11.984375 C 9.328125 -11.683594 9.800781 -11.535156 10.359375 -11.535156 L 13.269531 -11.535156 L 13.269531 -8.089844 L 9.742188 -8.089844 C 9.164062 -8.089844 8.691406 -7.917969 8.328125 -7.574219 C 7.964844 -7.226562 7.785156 -6.730469 7.785156 -6.074219 C 7.785156 -5.308594 8.105469 -4.707031 8.75 -4.269531 C 9.394531 -3.832031 10.414062 -3.613281 11.816406 -3.613281 C 14.613281 -3.613281 16.015625 -4.441406 16.015625 -6.101562 L 16.015625 -11.535156 L 24.863281 -11.535156 L 24.863281 -8.089844 L 21.027344 -8.089844 L 21.027344 -6.214844 C 21.027344 -4.125 20.285156 -2.511719 18.800781 -1.371094 C 17.316406 -0.234375 14.996094 0.335938 11.84375 0.335938 C 8.59375 0.335938 6.160156 -0.1875 4.535156 -1.230469 C 2.910156 -2.277344 2.101562 -3.660156 2.101562 -5.375 C 2.101562 -6.496094 2.394531 -7.460938 2.980469 -8.273438 C 3.570312 -9.085938 4.394531 -9.660156 5.460938 -9.996094 L 5.460938 -10.105469 C 4.65625 -10.40625 3.988281 -10.917969 3.457031 -11.648438 C 2.925781 -12.375 2.660156 -13.1875 2.660156 -14.082031 C 2.660156 -15.089844 3 -16.015625 3.683594 -16.855469 C 4.363281 -17.695312 5.386719 -18.363281 6.746094 -18.855469 C 8.109375 -19.351562 9.753906 -19.597656 11.675781 -19.597656 Z M 11.675781 -19.597656 "/></g></g></g><g fill="#000000" fill-opacity="1"><g transform="translate(150.931633, 46.946679)"><g><path d="M 10.164062 -19.597656 C 12.625 -19.597656 14.652344 -19.097656 16.238281 -18.101562 C 17.824219 -17.101562 18.636719 -15.621094 18.675781 -13.664062 L 18.675781 -13.328125 L 12.878906 -13.328125 L 12.878906 -13.4375 C 12.878906 -14 12.671875 -14.464844 12.261719 -14.839844 C 11.851562 -15.210938 11.226562 -15.398438 10.386719 -15.398438 C 9.566406 -15.398438 8.9375 -15.277344 8.496094 -15.035156 C 8.058594 -14.792969 7.839844 -14.492188 7.839844 -14.140625 C 7.839844 -13.636719 8.136719 -13.261719 8.734375 -13.019531 C 9.332031 -12.777344 10.292969 -12.523438 11.617188 -12.261719 C 13.167969 -11.945312 14.441406 -11.613281 15.441406 -11.269531 C 16.4375 -10.921875 17.3125 -10.359375 18.058594 -9.574219 C 18.804688 -8.792969 19.1875 -7.726562 19.207031 -6.382812 C 19.207031 -4.105469 18.4375 -2.417969 16.898438 -1.316406 C 15.355469 -0.214844 13.296875 0.335938 10.722656 0.335938 C 7.71875 0.335938 5.378906 -0.167969 3.710938 -1.175781 C 2.039062 -2.183594 1.203125 -3.964844 1.203125 -6.523438 L 7.054688 -6.523438 C 7.054688 -5.554688 7.308594 -4.902344 7.8125 -4.578125 C 8.316406 -4.25 9.097656 -4.085938 10.164062 -4.085938 C 10.945312 -4.085938 11.59375 -4.171875 12.109375 -4.339844 C 12.621094 -4.507812 12.878906 -4.851562 12.878906 -5.375 C 12.878906 -5.84375 12.59375 -6.191406 12.023438 -6.425781 C 11.457031 -6.660156 10.527344 -6.90625 9.238281 -7.167969 C 7.671875 -7.503906 6.375 -7.851562 5.347656 -8.21875 C 4.320312 -8.582031 3.425781 -9.183594 2.660156 -10.023438 C 1.894531 -10.863281 1.511719 -12 1.511719 -13.4375 C 1.511719 -15.546875 2.328125 -17.101562 3.960938 -18.101562 C 5.59375 -19.097656 7.660156 -19.597656 10.164062 -19.597656 Z M 10.164062 -19.597656 "/></g></g></g><g fill="#000000" fill-opacity="1"><g transform="translate(171.144873, 46.946679)"><g><path d="M 1.875 -16.519531 L 1.875 -20.296875 L 7.449219 -20.296875 L 7.449219 -16.519531 Z M 1.875 0 L 1.875 -14.78125 L 7.449219 -14.78125 L 7.449219 0 Z M 1.875 0 "/></g></g></g><g fill="#000000" fill-opacity="1"><g transform="translate(180.467595, 46.946679)"><g><path d="M 18.308594 -17.554688 C 18.308594 -16.414062 18.027344 -15.539062 17.457031 -14.921875 C 16.886719 -14.308594 16.035156 -13.847656 14.894531 -13.550781 C 15.4375 -13.140625 15.859375 -12.660156 16.167969 -12.109375 C 16.476562 -11.558594 16.628906 -10.976562 16.628906 -10.359375 C 16.628906 -8.792969 16.039062 -7.605469 14.851562 -6.804688 C 13.667969 -6 12.1875 -5.597656 10.414062 -5.597656 L 8.289062 -5.597656 C 7.113281 -5.597656 6.523438 -5.328125 6.523438 -4.789062 C 6.523438 -4.527344 6.652344 -4.316406 6.914062 -4.15625 C 7.175781 -4 7.632812 -3.917969 8.289062 -3.917969 L 13.328125 -3.917969 C 14.96875 -3.917969 16.210938 -3.492188 17.050781 -2.632812 C 17.890625 -1.773438 18.308594 -0.625 18.308594 0.8125 C 18.308594 1.875 18.03125 2.789062 17.46875 3.554688 C 16.910156 4.320312 16.15625 4.898438 15.203125 5.292969 C 14.25 5.683594 13.214844 5.878906 12.09375 5.878906 L 3.863281 5.878906 C 3.191406 5.878906 2.570312 5.722656 2 5.402344 C 1.433594 5.085938 0.980469 4.652344 0.644531 4.101562 C 0.308594 3.550781 0.140625 2.941406 0.140625 2.269531 C 0.140625 1.539062 0.363281 0.882812 0.8125 0.292969 C 1.261719 -0.292969 1.820312 -0.738281 2.492188 -1.035156 C 2.042969 -1.351562 1.6875 -1.734375 1.429688 -2.183594 C 1.167969 -2.632812 1.035156 -3.117188 1.035156 -3.640625 C 1.035156 -4.367188 1.304688 -5.027344 1.847656 -5.613281 C 2.390625 -6.203125 3.0625 -6.597656 3.863281 -6.804688 C 3.136719 -7.269531 2.558594 -7.804688 2.128906 -8.414062 C 1.699219 -9.019531 1.484375 -9.660156 1.484375 -10.332031 C 1.484375 -12.046875 2.179688 -13.277344 3.570312 -14.011719 C 4.960938 -14.75 6.804688 -15.117188 9.097656 -15.117188 C 10.105469 -15.117188 10.917969 -15.0625 11.535156 -14.949219 C 12.449219 -15.527344 13.042969 -16.054688 13.3125 -16.53125 C 13.582031 -17.007812 13.71875 -17.347656 13.71875 -17.554688 Z M 9.042969 -12.207031 C 8.425781 -12.207031 7.921875 -12.046875 7.53125 -11.730469 C 7.140625 -11.414062 6.945312 -10.957031 6.945312 -10.359375 C 6.945312 -9.742188 7.125 -9.28125 7.488281 -8.972656 C 7.851562 -8.664062 8.371094 -8.511719 9.042969 -8.511719 C 9.714844 -8.511719 10.242188 -8.664062 10.625 -8.972656 C 11.007812 -9.28125 11.199219 -9.742188 11.199219 -10.359375 C 11.199219 -10.976562 11.007812 -11.4375 10.625 -11.746094 C 10.242188 -12.054688 9.714844 -12.207031 9.042969 -12.207031 Z M 6.886719 0 C 6.457031 0 6.109375 0.117188 5.835938 0.351562 C 5.566406 0.582031 5.429688 0.914062 5.429688 1.34375 C 5.429688 1.773438 5.570312 2.117188 5.851562 2.378906 C 6.132812 2.640625 6.476562 2.773438 6.886719 2.773438 L 11.253906 2.773438 C 11.664062 2.773438 12.015625 2.644531 12.304688 2.394531 C 12.59375 2.140625 12.738281 1.800781 12.738281 1.371094 C 12.738281 0.941406 12.597656 0.605469 12.320312 0.363281 C 12.039062 0.121094 11.683594 0 11.253906 0 Z M 6.886719 0 "/></g></g></g><g fill="#000000" fill-opacity="1"><g transform="translate(199.141044, 46.946679)"><g><path d="M 7.25 -13.242188 C 7.847656 -13.839844 8.546875 -14.300781 9.351562 -14.628906 C 10.152344 -14.957031 10.992188 -15.117188 11.871094 -15.117188 C 13.589844 -15.117188 14.875 -14.644531 15.734375 -13.691406 C 16.59375 -12.738281 17.023438 -11.367188 17.023438 -9.574219 L 17.023438 0 L 11.449219 0 L 11.449219 -8.902344 C 11.449219 -9.539062 11.289062 -10.046875 10.960938 -10.429688 C 10.632812 -10.8125 10.171875 -11.003906 9.574219 -11.003906 C 8.882812 -11.003906 8.324219 -10.777344 7.894531 -10.332031 C 7.464844 -9.882812 7.25 -9.332031 7.25 -8.679688 L 7.25 0 L 1.679688 0 L 1.679688 -20.296875 L 7.25 -20.296875 Z M 7.25 -13.242188 "/></g></g></g><g fill="#000000" fill-opacity="1"><g transform="translate(217.814493, 46.946679)"><g><path d="M 11.535156 -14.78125 L 11.535156 -11.003906 L 8.398438 -11.003906 L 8.398438 -5.375 C 8.398438 -4.703125 8.511719 -4.214844 8.734375 -3.90625 C 8.960938 -3.597656 9.371094 -3.445312 9.96875 -3.445312 L 11.535156 -3.445312 L 11.535156 -0.167969 C 11.085938 -0.0195312 10.507812 0.101562 9.800781 0.195312 C 9.089844 0.289062 8.472656 0.335938 7.953125 0.335938 C 6.308594 0.335938 5.042969 0.0390625 4.15625 -0.558594 C 3.269531 -1.15625 2.828125 -2.175781 2.828125 -3.613281 L 2.828125 -11.003906 L 0.757812 -11.003906 L 0.757812 -14.78125 L 3.050781 -14.78125 L 4.253906 -19.261719 L 8.398438 -19.261719 L 8.398438 -14.78125 Z M 11.535156 -14.78125 "/></g></g></g></svg>